<?xml version="1.0" encoding="UTF-8" standalone="no"?>
<svg width="800" height="600" viewBox="0 0 800 600" xmlns="http://www.w3.org/2000/svg">
  <!-- Browser Window Frame -->
  <rect x="0" y="0" width="800" height="600" rx="8" fill="#f1f5f9" />
  
  <!-- Browser Address Bar -->
  <rect x="0" y="0" width="800" height="40" rx="8" fill="#334155" />
  
  <!-- Browser Buttons -->
  <circle cx="20" cy="20" r="6" fill="#ef4444" />
  <circle cx="40" cy="20" r="6" fill="#f59e0b" />
  <circle cx="60" cy="20" r="6" fill="#10b981" />
  
  <!-- Address Bar -->
  <rect x="80" y="10" width="700" height="20" rx="4" fill="#1e293b" />
  <text x="90" y="24" font-family="Arial" font-size="12" fill="#94a3b8">https://old.fairpricepharma.ca</text>
  
  <!-- Browser Content -->
  <rect x="0" y="40" width="800" height="560" fill="#e2e8f0" />
  
  <!-- Basic Old School Website Layout -->
  <rect x="50" y="70" width="700" height="80" fill="#64748b" />
  <text x="400" y="120" font-family="Courier New" font-size="20" font-weight="bold" fill="white" text-anchor="middle">FAIR PRICE PHARMA</text>
  
  <!-- Navigation (Basic) -->
  <rect x="50" y="150" width="700" height="30" fill="#94a3b8" />
  <text x="100" y="170" font-family="Courier New" font-size="12" fill="white">HOME</text>
  <text x="200" y="170" font-family="Courier New" font-size="12" fill="white">ABOUT</text>
  <text x="300" y="170" font-family="Courier New" font-size="12" fill="white">PRODUCTS</text>
  <text x="400" y="170" font-family="Courier New" font-size="12" fill="white">SOLUTIONS</text>
  <text x="500" y="170" font-family="Courier New" font-size="12" fill="white">CONTACT</text>
  
  <!-- Old School Tables -->
  <rect x="50" y="200" width="700" height="350" fill="white" />
  
  <!-- Table Headers -->
  <rect x="50" y="200" width="700" height="30" fill="#cbd5e1" />
  <line x1="50" y1="230" x2="750" y2="230" stroke="#94a3b8" stroke-width="1" />
  
  <!-- Table Content -->
  <text x="60" y="220" font-family="Arial" font-size="12" fill="#334155">Safe Supply Program</text>
  <line x1="250" y1="200" x2="250" y2="550" stroke="#94a3b8" stroke-width="1" />
  <text x="260" y="220" font-family="Arial" font-size="12" fill="#334155">Harm Reduction Initiative</text>
  <line x1="450" y1="200" x2="450" y2="550" stroke="#94a3b8" stroke-width="1" />
  <text x="460" y="220" font-family="Arial" font-size="12" fill="#334155">Resources for Addicts</text>
  
  <!-- Table Rows -->
  <line x1="50" y1="260" x2="750" y2="260" stroke="#94a3b8" stroke-width="1" />
  <line x1="50" y1="290" x2="750" y2="290" stroke="#94a3b8" stroke-width="1" />
  <line x1="50" y1="320" x2="750" y2="320" stroke="#94a3b8" stroke-width="1" />
  <line x1="50" y1="350" x2="750" y2="350" stroke="#94a3b8" stroke-width="1" />
  <line x1="50" y1="380" x2="750" y2="380" stroke="#94a3b8" stroke-width="1" />
  <line x1="50" y1="410" x2="750" y2="410" stroke="#94a3b8" stroke-width="1" />
  <line x1="50" y1="440" x2="750" y2="440" stroke="#94a3b8" stroke-width="1" />
  <line x1="50" y1="470" x2="750" y2="470" stroke="#94a3b8" stroke-width="1" />
  <line x1="50" y1="500" x2="750" y2="500" stroke="#94a3b8" stroke-width="1" />
  <line x1="50" y1="530" x2="750" y2="530" stroke="#94a3b8" stroke-width="1" />
  
  <!-- Table Border -->
  <rect x="50" y="200" width="700" height="350" fill="none" stroke="#94a3b8" stroke-width="1" />
  
  <!-- Footer -->
  <rect x="50" y="560" width="700" height="20" fill="#e2e8f0" />
  <text x="400" y="574" font-family="Arial" font-size="10" fill="#64748b" text-anchor="middle">Copyright © 2024 Fair Price Pharma. All Rights Reserved.</text>
</svg>