<?xml version="1.0" encoding="UTF-8" standalone="no"?>
<svg width="800" height="600" viewBox="0 0 800 600" xmlns="http://www.w3.org/2000/svg">
  <!-- Browser Window Frame -->
  <rect x="0" y="0" width="800" height="600" rx="8" fill="#f1f5f9" />
  
  <!-- Browser Address Bar -->
  <rect x="0" y="0" width="800" height="40" rx="8" fill="#334155" />
  
  <!-- Browser Buttons -->
  <circle cx="20" cy="20" r="6" fill="#ef4444" />
  <circle cx="40" cy="20" r="6" fill="#f59e0b" />
  <circle cx="60" cy="20" r="6" fill="#10b981" />
  
  <!-- Address Bar -->
  <rect x="80" y="10" width="700" height="20" rx="4" fill="#1e293b" />
  <text x="90" y="24" font-family="Arial" font-size="12" fill="#94a3b8">https://fairpricepharma.ca</text>
  
  <!-- Browser Content -->
  <rect x="0" y="40" width="800" height="560" fill="white" />
  
  <!-- Header -->
  <rect x="0" y="40" width="800" height="80" fill="#2563eb" />
  <text x="400" y="85" font-family="Arial" font-size="20" font-weight="bold" fill="white" text-anchor="middle">Fair Price Pharma</text>
  
  <!-- Navigation -->
  <rect x="0" y="120" width="800" height="40" fill="#f8fafc" />
  <text x="100" y="145" font-family="Arial" font-size="14" fill="#334155">Home</text>
  <text x="200" y="145" font-family="Arial" font-size="14" fill="#334155">About</text>
  <text x="300" y="145" font-family="Arial" font-size="14" fill="#334155">Services</text>
  <text x="400" y="145" font-family="Arial" font-size="14" fill="#334155">Research</text>
  <text x="500" y="145" font-family="Arial" font-size="14" fill="#334155">Resources</text>
  <text x="600" y="145" font-family="Arial" font-size="14" fill="#334155">Contact</text>
  
  <!-- Hero Section -->
  <rect x="50" y="180" width="700" height="200" rx="8" fill="#dbeafe" />
  <text x="400" y="250" font-family="Arial" font-size="24" font-weight="bold" fill="#1e40af" text-anchor="middle">Improving Access to Essential Medications</text>
  <text x="400" y="280" font-family="Arial" font-size="16" fill="#1e40af" text-anchor="middle">Through prescribed pharmaceutical alternatives and innovative healthcare solutions</text>
  <rect x="300" y="310" width="200" height="40" rx="20" fill="#2563eb" />
  <text x="400" y="335" font-family="Arial" font-size="14" fill="white" text-anchor="middle">Learn More</text>
  
  <!-- Content Sections -->
  <rect x="50" y="400" width="220" height="150" rx="8" fill="#f8fafc" />
  <text x="160" y="430" font-family="Arial" font-size="16" font-weight="bold" fill="#334155" text-anchor="middle">Our Approach</text>
  <rect x="70" y="450" width="180" height="80" rx="4" fill="#f1f5f9" />
  
  <rect x="290" y="400" width="220" height="150" rx="8" fill="#f8fafc" />
  <text x="400" y="430" font-family="Arial" font-size="16" font-weight="bold" fill="#334155" text-anchor="middle">Recent Research</text>
  <rect x="310" y="450" width="180" height="80" rx="4" fill="#f1f5f9" />
  
  <rect x="530" y="400" width="220" height="150" rx="8" fill="#f8fafc" />
  <text x="640" y="430" font-family="Arial" font-size="16" font-weight="bold" fill="#334155" text-anchor="middle">Patient Resources</text>
  <rect x="550" y="450" width="180" height="80" rx="4" fill="#f1f5f9" />
</svg>